<svg xmlns="http://www.w3.org/2000/svg" width="454.409" height="512" viewBox="0 0 454.409 512">
  <defs>
    <style>
      .cls-1 {
        fill: #fff;
        fill-rule: evenodd;
      }
    </style>
  </defs>
  <path id="Doc.svg" class="cls-1" d="M1284.88,611.783l-22.66-132.6a37.773,37.773,0,0,0-26.47-29.95L1174.61,430.8a68.157,68.157,0,0,0-47.31-59.174c1.93-2.146,3.73-4.285,5.37-6.377,14.54-18.477,22.32-38.833,24.31-52.724h4.71a22.264,22.264,0,0,0,22.25-22.231V278.9a22.392,22.392,0,0,0-11.53-19.441v-27.4a7.505,7.505,0,0,0-15.01,0v30.764a46.166,46.166,0,0,0-9.97,2.884,7.528,7.528,0,0,0-1.06.472c-0.81.367-1.61,0.754-2.42,1.19V206.938a30.317,30.317,0,0,0-30.29-30.273h-20.71a31.144,31.144,0,0,0-19.65,7l-2.03,1.66a20.979,20.979,0,0,1-26.54,0l-2.03-1.66a31.13,31.13,0,0,0-19.65-7h-20.71a30.317,30.317,0,0,0-30.293,30.273V267.36c-0.8-.436-1.61-0.823-2.416-1.19a7.479,7.479,0,0,0-1.056-.472,46.291,46.291,0,0,0-9.974-2.884V185.025A44.1,44.1,0,0,1,1002.66,141h110.68a44.1,44.1,0,0,1,44.06,44.03v11.786a7.5,7.5,0,0,0,15,0V185.025A59.107,59.107,0,0,0,1113.34,126H1002.66A59.112,59.112,0,0,0,943.6,185.025v74.43A22.38,22.38,0,0,0,932.064,278.9v11.4a22.263,22.263,0,0,0,22.246,22.231h4.717c1.98,13.891,9.765,34.247,24.3,52.724,1.644,2.09,3.437,4.227,5.37,6.371A68.4,68.4,0,0,0,941.391,430.8L880.254,449.23a37.749,37.749,0,0,0-26.471,29.95l-9.205,53.849a7.5,7.5,0,0,0,14.792,2.524l9.2-53.849a22.835,22.835,0,0,1,16.014-18.118l56.544-17.049v14.831A37.531,37.531,0,0,0,912.6,484.976a37.99,37.99,0,0,0-2.228,10.182l-5.465,70.1a19.063,19.063,0,0,0,19.012,20.539h9.355a7.5,7.5,0,1,0,0-15H923.92a4.061,4.061,0,0,1-4.051-4.377l5.464-70.1a23.023,23.023,0,0,1,1.349-6.167,22.689,22.689,0,0,1,21.238-14.449l1.236-.009h0.172a22.483,22.483,0,0,1,20.95,13.427,23,23,0,0,1,1.756,7.2l5.467,70.1a4.063,4.063,0,0,1-4.053,4.376h-9.355a7.5,7.5,0,1,0,0,15h9.355a19.065,19.065,0,0,0,19.013-20.538l-5.467-70.1a37.949,37.949,0,0,0-2.9-11.884,37.139,37.139,0,0,0-27.957-21.955V442.013l25.792-7.777c2.346,4.939,7,15.612,16.208,38.619,9.283,23.214,20.823,52.969,31.893,81.895q0.12,0.365.27,0.712c7.38,19.311,14.55,38.225,20.67,54.541a7.505,7.505,0,0,0,14.05,0c6.13-16.316,13.29-35.23,20.68-54.541,0.1-.232.19-0.47,0.27-0.712,11.06-28.909,22.59-58.645,31.87-81.852,9.23-23.037,13.88-33.719,16.23-38.662l25.79,7.777V486.3a38.816,38.816,0,1,0,15.01.032V446.538l56.54,17.049a22.848,22.848,0,0,1,16.02,18.118l22.66,132.6a7.447,7.447,0,0,1-7.34,8.7H853.25a7.446,7.446,0,0,1-7.343-8.7l7.48-43.762a7.5,7.5,0,0,0-14.791-2.524l-7.48,43.762A22.441,22.441,0,0,0,853.25,638h409.5A22.441,22.441,0,0,0,1284.88,611.783ZM1157.49,278.089a32.254,32.254,0,0,1,7.24-.977,7.677,7.677,0,0,0,3.67-.87,7.182,7.182,0,0,1,.53,2.654v11.4a7.248,7.248,0,0,1-7.24,7.236h-4.2V278.089h0ZM958.509,297.528h-4.2a7.247,7.247,0,0,1-7.242-7.236V278.9a7.114,7.114,0,0,1,.532-2.653,7.654,7.654,0,0,0,3.666.869,33.467,33.467,0,0,1,7.243.981v19.435h0Zm15.006,8.407v-19.7a10.527,10.527,0,0,0,13.537-10.085V206.938a15.3,15.3,0,0,1,15.288-15.278h20.71a16.069,16.069,0,0,1,10.15,3.619l2.03,1.66a35.989,35.989,0,0,0,45.53,0l2.04-1.66a16.069,16.069,0,0,1,10.15-3.619h20.71a15.3,15.3,0,0,1,15.29,15.278v69.215a10.522,10.522,0,0,0,13.53,10.091v19.691c0,10.947-7.57,32.2-21.6,50.043a98.9,98.9,0,0,1-17.99,17.805c-0.23.156-.45,0.325-0.67,0.5a73.167,73.167,0,0,1-88.44,0c-0.22-.179-0.44-0.348-0.67-0.5a98.9,98.9,0,0,1-17.986-17.806C981.089,338.141,973.515,316.882,973.515,305.935ZM1107.15,427.07L1058,463.784l-49.15-36.714a35.563,35.563,0,0,0,7.6-21.23V393.754a88.17,88.17,0,0,0,83.1,0V405.84A35.563,35.563,0,0,0,1107.15,427.07ZM996.324,418.7a20.529,20.529,0,0,0-12.651-.636c-0.184.043-.364,0.092-0.539,0.144l-25.922,7.816a53.288,53.288,0,0,1,44.238-42.009V405.84A19.824,19.824,0,0,1,996.324,418.7Zm20.366,60.188a0.462,0.462,0,0,1-.04-0.1c-0.38-.961-0.76-1.909-1.13-2.846-0.07-.17-0.14-0.339-0.2-0.507-0.37-.917-0.73-1.827-1.08-2.722-0.03-.063-0.05-0.125-0.08-0.189q-1.665-4.19-3.21-8.039c-0.08-.186-0.15-0.375-0.23-0.56-0.3-.736-0.59-1.461-0.88-2.177-0.1-.263-0.21-0.523-0.31-0.783-0.28-.694-0.56-1.384-0.83-2.059-0.09-.2-0.17-0.4-0.25-0.6-0.5-1.226-.98-2.421-1.46-3.586-0.12-.315-0.26-0.636-0.38-0.947-0.19-.454-0.37-0.9-0.55-1.341-0.2-.48-0.39-0.956-0.59-1.424-0.07-.175-0.14-0.36-0.22-0.534-0.05-.14-0.11-0.269-0.16-0.408q-1.3-3.156-2.47-5.952a0.09,0.09,0,0,1-.02-0.045c-0.42-.993-0.83-1.963-1.22-2.887q-0.3-.719-0.6-1.412l42.28,31.574-17.67,7.5-0.09.04-7.38,3.131C1017.5,480.955,1017.1,479.919,1016.69,478.889Zm17.9,45.908c-1.48-3.843-2.98-7.708-4.47-11.569q-3.51-9.058-6.71-17.251l2.8-1.189,11.44,13.289Zm23.55,60.938a7.5,7.5,0,0,0-.76-1.259c-3.39-8.955-7.7-20.286-12.46-32.753l7.01-38.325h12.14l7.01,38.325C1066.09,564.784,1061.6,576.594,1058.14,585.735Zm8.75-87.331h-17.78l-8.41-9.77,17.3-7.343,17.3,7.343Zm18.99,14.824q-2.25,5.792-4.47,11.569l-3.06-16.721,11.44-13.289,2.8,1.189Q1089.38,504.181,1085.88,513.228Zm28.74-72.048c-0.37.876-.76,1.8-1.15,2.733-0.05.122-.11,0.245-0.16,0.368-0.39.93-.78,1.88-1.19,2.869a1.6,1.6,0,0,0-.08.2c-0.36.853-.72,1.733-1.09,2.63-0.07.168-.13,0.323-0.2,0.492-0.09.2-.17,0.414-0.26,0.617-0.16.4-.33,0.808-0.5,1.216-0.2.5-.41,1-0.62,1.519-0.07.164-.13,0.335-0.2,0.5-0.53,1.279-1.06,2.6-1.61,3.951-0.09.212-.17,0.42-0.26,0.635-0.27.669-.54,1.352-0.82,2.039-0.11.269-.22,0.537-0.33,0.809q-0.42,1.064-.87,2.155c-0.08.2-.16,0.411-0.24,0.615q-1.53,3.8-3.17,7.925c-0.04.091-.07,0.18-0.11,0.272-0.35.889-.71,1.793-1.07,2.7l-0.21.511c-0.37.942-.75,1.894-1.13,2.861a0.12,0.12,0,0,0-.02.053c-0.42,1.042-.83,2.09-1.25,3.16l-7.38-3.134a0.651,0.651,0,0,1-.08-0.033l-17.68-7.5,42.28-31.574Q1114.92,440.46,1114.62,441.18Zm18.25-22.97h-0.01a0.067,0.067,0,0,0-.02-0.006,20.5,20.5,0,0,0-13.16.5,19.828,19.828,0,0,1-5.13-12.861V384.005a52.875,52.875,0,0,1,44.27,42.029Zm58.22,106.165a23.815,23.815,0,1,1-23.81-23.8A23.831,23.831,0,0,1,1191.09,524.375Z" transform="translate(-830.781 -126)"/>
</svg>
