<svg xmlns="http://www.w3.org/2000/svg" width="45" height="45" viewBox="0 0 45 45">
  <defs>
    <style>
      .cls-1 {
        fill: #fff;
        fill-rule: evenodd;
      }
    </style>
  </defs>
  <path id="U4.svg" class="cls-1" d="M1468.03,336h-1.41v-4.118a5.409,5.409,0,0,1,3.1-4.907,5.313,5.313,0,0,1,5.66.638l0.13,0.112c4.03,3.353,10.25,3.353,12.91,3.353,15.99,0,16.17-17.4,16.17-17.578,0-3.926-.77-13.294-7.94-15.5a10.589,10.589,0,0,0-12.53,4.587,0.712,0.712,0,0,1-.62.366h-2.11a4.928,4.928,0,0,1-4.92-4.922V291h1.4v7.031a3.522,3.522,0,0,0,3.52,3.516h1.72a11.95,11.95,0,0,1,13.96-4.891c8.06,2.481,8.93,12.606,8.93,16.844,0,0.19-.2,18.984-17.58,18.984-2.81,0-9.39,0-13.81-3.678l-0.11-.095a3.861,3.861,0,0,0-4.17-.468,4.007,4.007,0,0,0-2.3,3.639V336Zm-5.62,0H1461v-3.516a11.265,11.265,0,0,1,11.25-11.25h3.89a8.935,8.935,0,0,1,6.02-2.793,5.645,5.645,0,0,1,2.38-3.719,9.2,9.2,0,0,1-1.83-6.144h-2.02a9.859,9.859,0,0,1-9.85-9.844V291h1.41v7.734a8.451,8.451,0,0,0,8.44,8.438h2.81a0.717,0.717,0,0,1,.54.248,0.693,0.693,0,0,1,.15.571,7.839,7.839,0,0,0,1.92,6.418,0.688,0.688,0,0,1,.19.61,0.671,0.671,0,0,1-.38.516,4.3,4.3,0,0,0-2.42,3.59,0.7,0.7,0,0,1-.7.7,7.421,7.421,0,0,0-5.77,2.533,0.7,0.7,0,0,1-.56.28h-4.22a9.85,9.85,0,0,0-9.84,9.843V336Zm26.01-7.734c-8.73,0-9.74-3-9.82-3.345a0.712,0.712,0,0,1,.18-0.668,8.98,8.98,0,0,1,6.33-2.394c0.2,0,.37,0,0.53.013,0.32-4.04,3.19-4.8,3.31-4.835a0.772,0.772,0,0,1,.17-0.021h11.25a0.69,0.69,0,0,1,.55.261,0.664,0.664,0,0,1,.14.589C1501.04,317.97,1498.72,328.266,1488.42,328.266Zm-8.24-3.382c0.55,0.621,2.42,1.975,8.24,1.975,7.59,0,10.28-6.13,11.03-8.437h-10.22c-0.38.133-2.21,0.95-2.21,4.219a0.73,0.73,0,0,1-.25.536,0.7,0.7,0,0,1-.57.157A8.369,8.369,0,0,0,1480.18,324.884Z" transform="translate(-1461 -291)"/>
</svg>
