<svg xmlns="http://www.w3.org/2000/svg" width="27.41" height="40.437" viewBox="0 0 27.41 40.437"><defs><style>.cls-1{fill:#fff;fill-rule:evenodd}</style></defs><path id="_202.svg" data-name="202.svg" class="cls-1" d="M1036.52 286.419a3.372 3.372.0 0 0-1.51-1.344c.28-2.736-.15-4.764-1.3-6.027.98-.081 1.88-.069 2.39-.061h.37a.765.765.0 0 0 0-1.53h-.35c-1.82-.027-6.07-.089-7.63 2.195a6.237 6.237.0 0 0-.25 4.7c.94 1.947 2.68 1.916 4.09 1.886s2.28.006 2.9.991c1.51 2.392 2.24 5.681 2.24 10.053.0 4.814-2.04 11.937-6.43 11.937-4.88.0-15.56-5.847-17.65-15.009l-.05-.176c-.28-1.162-1.16-4.7 3.42-6.206 1.47-.482 6.3-2.285 6.73-5.241.59-4 1.2-4.622 2.33-5.748 1.67-1.675 6.35-2.424 10.24-2.424a.765.765.0 0 0 0-1.53 33.547 33.547.0 0 0-5.87.539 6.521 6.521.0 0 0-6.02-.988 8.15 8.15.0 0 0-4.09 2.386v-2.963a.76.76.0 1 0-1.52.0v4.959a1.064 1.064.0 0 0 .03.182 15.235 15.235.0 0 0-.6 1.424 9.89 9.89.0 0 0-2.44 1.009v-7.445a.77.77.0 0 0-.77-.764.762.762.0 0 0-.76.764v8.6a6.705 6.705.0 0 0-1.2 1.538c-1.04 1.855-1.12 4.132-.26 6.763a6.442 6.442.0 0 0-.7 5.515l.04.146a19.337 19.337.0 0 0 5.37 9.283v6.939a.772.772.0 0 0 .77.765.763.763.0 0 0 .76-.765v-5.532a26.354 26.354.0 0 0 3.01 2.21v3.322a.76.76.0 1 0 1.52.0v-2.426a17.613 17.613.0 0 0 7.71 2.4c5.49.0 7.96-7.875 7.96-13.466C1039 292.552 1038.21 289.1 1036.52 286.419zm-4.22-1.7c-1.43.031-2.2.0-2.69-1.021a5.173 5.173.0 0 1 .13-3.176 3.328 3.328.0 0 1 1.88-1.119c.61.267 2.3 1.061 1.9 5.336C1033.1 284.7 1032.69 284.706 1032.3 284.714zm-7.73-10.8a5.7 5.7.0 0 1 3.48.049 8.21 8.21.0 0 0-3.31 1.8c-1.38 1.38-2.13 2.3-2.76 6.606-.16 1.12-1.73 2.278-3.56 3.154a27.031 27.031.0 0 1 .57-5.148C1020.28 275.093 1023.29 274.269 1024.57 273.915zm-10.42 8.965a6.435 6.435.0 0 1 3.32-2.673 30.56 30.56.0 0 0-.6 5.967c-.2.072-.39.142-.59.206a8.661 8.661.0 0 0-2.5 1.263A6.329 6.329.0 0 1 1014.15 282.88zm2.24 9.952a.766.766.0 0 0-.92-.574.757.757.0 0 0-.57.915c1.32 5.767 5.53 10.162 12.89 13.44a.784.784.0 0 0 .31.065.774.774.0 0 0 .7-.454.762.762.0 0 0-.39-1.009C1024.02 303.257 1017.99 299.845 1016.39 292.832z" transform="translate(-1011.59 -271.094)"/></svg>