<svg xmlns="http://www.w3.org/2000/svg" width="798.532" height="998.847" viewBox="0 0 798.532 998.847">
  <defs>
    <style>
      .cls-1 {
        fill: #fff;
        fill-rule: evenodd;
      }
    </style>
  </defs>
  <path id="Oborud.svg" class="cls-1" d="M1344.6,1499.42H754.12a14.635,14.635,0,0,1,0-29.27h568.95l-20.47-51.6H647.049l-20.48,51.6h59.17a14.635,14.635,0,0,1,0,29.27h-80.7a14.637,14.637,0,0,1-13.579-20.03l32.076-80.87a14.6,14.6,0,0,1,13.58-9.23h103.87c1.578-25.12,6.533-49.26,15.4-71.64-56.785-35.91-101.641-86.06-125.841-131.96H596.757a36.109,36.109,0,0,1-36.063-36.07V1127.5a36.117,36.117,0,0,1,36.063-36.08H830.615a36.107,36.107,0,0,1,36.052,36.08v22.12a36.1,36.1,0,0,1-36.052,36.07H764.436c16.029,16.78,33.693,31.71,53.716,43.81,83.582-75.29,204.168-81.86,295.148-15.04,65.75-49.96,105-127.66,105-210.28,0-80.559-36.24-153.907-98.35-204.355L945.766,974.155l3.21,3.224a31.366,31.366,0,0,1,0,44.281l-24.455,24.48a31.161,31.161,0,0,1-22.127,9.15c-16.306,0-23.315-10.93-25.33-12.37-15.8,13.46-23.919,31.4-46.718,31.4a36.829,36.829,0,0,1-26.188-10.85c-9.117-11.06-25.856-19.28-25.856-41.24,0-22.77,17.969-31,31.369-46.754L799.5,965.3c-15.79,13.463-23.916,31.4-46.711,31.4-22.061,0-30.2-16.8-41.194-25.878a36.812,36.812,0,0,1-10.846-26.2c0-22.783,17.968-31.013,31.373-46.754L728.9,894.64a31.371,31.371,0,0,1,0-44.281l24.47-24.484a31.3,31.3,0,0,1,44.235,0l3.218,3.217,74.347-74.412a14.625,14.625,0,0,1,20.678,20.689l-74.358,74.407,103.6,103.686L1124.47,753.91c-42.49-42.523-70.71-70.773-103.59-103.679l-82.814,82.885a14.627,14.627,0,1,1-20.675-20.7L1010.54,619.2a14.6,14.6,0,0,1,20.67,0l13.02,13.024,59.56-59.6c-11.79-14.26-11.5-35.245,1.83-48.591l12.85-12.865a36.309,36.309,0,0,1,51.33,0l93.62,93.681a36.39,36.39,0,0,1,0,51.371l-12.85,12.864c-10.21,10.212-25.92,14.249-41.67,6.417l-31.71,31.741A370.451,370.451,0,0,1,1324.5,977.6a14.618,14.618,0,1,1-29.16,2.1,344.861,344.861,0,0,0-36.87-132.082c-27.1-52.652-70.86-99.11-102.28-119.358l-8,8,7.29,7.3a14.63,14.63,0,0,1,0,20.685L1141.15,778.6c145,120.115,139.95,339.593-3.97,454.833,0.8,0.76,1.35,1.75,2.15,2.52,6.64,6.54,12.26,13.99,18.12,21.27,3.64,4.55,8.01,8.49,11.32,13.3,70.55-57.04,116.04-140.05,125.56-230.07a14.611,14.611,0,1,1,29.06,3.07c-10.5,99.44-61.71,190.67-140.55,252.64a232.814,232.814,0,0,1,25.82,93.12h103.86a14.626,14.626,0,0,1,13.59,9.23l32.07,80.88A14.63,14.63,0,0,1,1344.6,1499.42ZM809.816,1027.74l15.02,15.03a7.785,7.785,0,0,0,11.024,0l20.526-20.54-26.04-26.061-20.53,20.541A7.814,7.814,0,0,0,809.816,1027.74Zm-77.549-77.619,15.016,15.026a7.789,7.789,0,0,0,11.02,0l20.53-20.547-26.044-26.051-20.526,20.532A7.822,7.822,0,0,0,732.267,950.121Zm58.217-90L776.931,846.56c-2.167-2.173-2.694.118-27.356,24.483a2.048,2.048,0,0,0,0,2.9c158.925,157.71,151.448,154.33,154.267,151.5l24.459-24.48C930.57,998.705,936.09,1005.85,790.484,860.124ZM1219.91,648.4a7.064,7.064,0,0,0,9.98,0l12.85-12.864a7.083,7.083,0,0,0,0-9.993l-93.61-93.69a7.051,7.051,0,0,0-9.98,0l-12.86,12.866a7.1,7.1,0,0,0,0,9.988Zm-33.31,8.047-62.61-62.672-59.09,59.135,62.61,62.673ZM830.608,1156.43a6.83,6.83,0,0,0,6.821-6.82V1127.5a6.839,6.839,0,0,0-6.821-6.83H596.742a6.84,6.84,0,0,0-6.821,6.83v22.11a6.831,6.831,0,0,0,6.821,6.82H830.608Zm-106.74,29.26H664.31a342.984,342.984,0,0,0,103.863,105.49c1.781-3.28,4.4-6.02,6.338-9.21a235.339,235.339,0,0,1,13.732-19.95c2.7-3.55,4.674-7.6,7.571-11.01A291.7,291.7,0,0,1,723.868,1185.69Zm250.948,11.95c-108.864,0-198.217,87.18-205.565,191.64H1180.39C1173.22,1287.24,1085.92,1197.64,974.816,1197.64Zm0.008,40.23a55.59,55.59,0,1,1-55.543,55.6A55.627,55.627,0,0,1,974.824,1237.87Zm0,81.92a26.325,26.325,0,1,0-26.309-26.32A26.342,26.342,0,0,0,974.824,1319.79Z" transform="translate(-560.688 -500.563)"/>
</svg>
