<svg xmlns="http://www.w3.org/2000/svg" width="36.54" height="40.25" viewBox="0 0 36.54 40.25"><defs><style>.cls-1{fill:#fff;fill-rule:evenodd}</style></defs><path id="_203.svg" data-name="203.svg" class="cls-1" d="M1038.2 498.106a5.843 5.843.0 0 1-4.76-3.783 14.938 14.938.0 0 0-22.22-9.95c-.92-3.671.42-5.643.49-5.744a.763.763.0 1 0-1.23-.9c-.08.115-1.98 2.786-.59 7.539a14.817 14.817.0 0 0-4.35 5.142c-1.9.951-3.19 3.714-3.19 6.871s1.29 5.918 3.19 6.87a14.846 14.846.0 0 0 4.4 5.182 12.054 12.054.0 0 0 .37 7.881.775.775.0 0 0 .7.442.826.826.0 0 0 .32-.071.776.776.0 0 0 .37-1.017 10.443 10.443.0 0 1-.43-6.353 14.907 14.907.0 0 0 17.86-2.146.021.021.0 0 0 .01.0 7.625 7.625.0 0 1 6.38-.569.765.765.0 0 0 .54-1.432 8.8 8.8.0 0 0-4.91-.371 15.008 15.008.0 0 0 2.58-8.147 6.757 6.757.0 0 0 4.32 2.085.713.713.0 0 0 .08.0A.765.765.0 0 0 1038.2 498.106zm-31.27 3.931c-.16.335-.31.632-.44.883a1.106 1.106.0 0 0-.11-.069c-1.25-.494-2.51-2.567-2.51-5.573s1.26-5.081 2.51-5.576a.518.518.0 0 0 .13-.084c.13.232.27.5.43.815-.86.984-1.27 2.944-1.27 4.807S1006.07 501.05 1006.93 502.037zm11.88 8.678a13.311 13.311.0 0 1-11.38-6.338c.16-.283.5-.892.88-1.691 1.69-.1 2.46-2.864 2.46-5.446s-.76-5.327-2.44-5.442c-.38-.764-.72-1.342-.9-1.626a13.4 13.4.0 0 1 3.85-4.022v0A13.429 13.429.0 1 1 1018.81 510.715zM1007.2 497.24a8.694 8.694.0 0 1 .48-3.057 1.665 1.665.0 0 1 .53-.868c.29.085 1.04 1.422 1.04 3.925.0 2.468-.73 3.8-1.03 3.923a1.828 1.828.0 0 1-.55-.911A8.594 8.594.0 0 1 1007.2 497.24zm12.5-10.56a.765.765.0 1 0 0 1.529 9.069 9.069.0 0 1 0 18.137.765.765.0 1 0 0 1.529A10.6 10.6.0 0 0 1019.7 486.68zm17.38 15.532-2.39-.68a.764.764.0 1 0-.41 1.471l2.39.679A.763.763.0 1 0 1037.08 502.212z" transform="translate(-1002.34 -477.406)"/></svg>